<svg xmlns="http://www.w3.org/2000/svg" viewBox="0 0 194 194"><defs><style>.cls-1{fill:#d86a6a;}</style></defs><g id="Layer_2" data-name="Layer 2"><g id="Layer_1-2" data-name="Layer 1"><rect class="cls-1" x="89.85" y="84.92" width="12.62" height="5.53"/><path class="cls-1" d="M97,0a97,97,0,1,0,97,97A97,97,0,0,0,97,0ZM82.41,70.32c2.48,1.49,4.89,3,7.44,4.47v5h12.61V75.14l-4.11-3.26,3-4.11c2.48,1.56,5.1,3,7.58,4.54V95.69H83.26V77.55c-1.28-1-2.55-2.06-3.83-3.12ZM40.59,107.1H15.08V79.82H38.4v5.67H22v15.94H40.59Zm20.56.14H54.27V94.42H42.65V88.75H54.27V75.21c-2-1.27-4-2.62-6-3.83l2.48-4.67,10.42,5ZM111,143.6H83V125.74h19.78v-6.59H83v-5.6h26.58V131H89.78v6.94H111Zm11.9-36.28H69.58v-5.6h53.29Zm34.52-.22H131.88V79.82h23.31v5.67H138.75v15.94h18.64ZM175.11,92v15.23H168.3v-32c-2-1.27-4-2.62-6-3.83.78-1.55,1.63-3.11,2.48-4.67,3.4,1.7,6.87,3.33,10.35,5v14.6H185V92Z"/></g></g></svg>